<?xml version="1.0" encoding="UTF-8" standalone="no"?>
<!-- Created with Inkscape (http://www.inkscape.org/) -->

<svg
   xmlns:svg="http://www.w3.org/2000/svg"
   xmlns="http://www.w3.org/2000/svg"
   version="1.1"
   width="744.09497"
   height="1052.363"
   viewBox="0 0 744.095 1052.363"
   id="svg4181"
   xml:space="preserve"><defs
   id="defs9" />
<g
   id="layer1">
	
</g>
<path
   d="m 161.812,697.812 c 0,0 48.169,-66.913 141.402,-48.029 38.65059,7.82873 63.18966,29.95371 78.48892,51.91267 12.75337,18.30485 19.08621,36.49435 21.82043,46.19128 1.27004,4.50419 1.76365,7.17605 1.76365,7.17605 M 254.714,1009.105 C 174.056,1002.066 104.034,954.337 68.713,882.32 58.46,861.416 51.317,838.341 47.65,814.291 c -2.076,-13.619 -2.376,-45.988 -0.55,-59.5 9.694,-71.76 49.07,-131.789 110.271,-168.113 89.164,-52.92 203.127,-38.277 276.351,35.506 25.787,25.986 43.939,55.34 54.979,88.908 32.441,98.658 -5.292,205.225 -93.008,262.666 -12.479,8.172 -35.981,19.348 -51.146,24.32 -28.59,9.371 -61.919,13.463 -89.833,11.027 l 0,0 z m 20.913,-30.682 c -0.322,-0.84 2.326,-9.764 5.886,-19.83 5.123,-14.486 6.846,-18.303 8.259,-18.303 1.246,0 4.737,4.98 11.566,16.5 5.38,9.076 9.803,17.014 9.829,17.643 0.057,1.373 -2.24,2.357 -5.505,2.357 -1.738,0 -3.009,-1.086 -4.668,-3.992 -2.196,-3.846 -2.469,-3.992 -7.459,-4 -5.812,-0.01 -7.799,1.336 -8.816,5.971 -0.755,3.439 -0.88,3.545 -5.256,4.484 -2.451,0.526 -3.394,0.323 -3.836,-0.83 l 0,0 z m 11.063,-14.672 c -1.015,-1.643 2.563,-12.961 4.098,-12.961 1.519,0 6.427,8.498 6.427,11.127 0,1.465 -0.743,1.873 -3.418,1.873 -1.88,0 -4.085,0.256 -4.898,0.568 -0.816,0.313 -1.81,0.04 -2.209,-0.607 z m -30.84,14.346 c -1.733,-0.463 -1.816,-1.312 -1.19,-12.152 0.37,-6.41 0.921,-13.117 1.225,-14.904 0.494,-2.902 0.301,-3.252 -1.809,-3.264 -5.389,-0.031 -6.861,-1.041 -6.861,-4.701 l 0,-3.482 11.75,0.676 c 15.247,0.875 15.438,0.938 15.058,4.857 -0.292,3.004 -0.542,3.18 -4.965,3.465 l -4.657,0.301 -0.657,10.699 c -0.941,15.314 -1.662,18.666 -4.056,18.852 -1.086,0.081 -2.813,-0.073 -3.838,-0.347 l 0,0 z m -29.886,-4.551 c -6.515,-1.545 -8.738,-2.482 -8.704,-3.666 0.118,-4.141 7.761,-34.525 8.769,-34.861 0.63,-0.209 5.43,0.607 10.666,1.818 l 9.52,2.199 0,3.516 0,3.514 -5.25,-0.641 c -2.888,-0.354 -6.229,-0.908 -7.424,-1.234 -1.82,-0.498 -2.228,-0.129 -2.5,2.252 -0.311,2.711 -0.036,2.922 5.674,4.393 5.644,1.453 6.019,1.736 6.314,4.758 0.408,4.182 -1.013,4.654 -8.673,2.885 -4.794,-1.109 -6.142,-1.146 -6.142,-0.178 0,0.682 -0.272,2.604 -0.605,4.27 -0.6,3 -0.547,3.043 5.25,4.283 3.221,0.689 6.199,1.549 6.618,1.908 0.419,0.359 0.476,2.088 0.125,3.842 -0.763,3.813 -1.356,3.854 -13.638,0.942 l 0,0 z m 92.889,-0.531 c -0.86,-1.395 -9.639,-32.621 -9.639,-34.291 0,-1.771 4.736,-3.523 12.345,-4.566 3.464,-0.475 5.249,-0.209 7.213,1.078 5.23,3.428 6.754,12.344 2.847,16.662 -1.46,1.613 -1.064,2.119 5.512,7.039 3.896,2.916 7.084,5.832 7.084,6.48 0,1.021 -4.91,3.373 -7.046,3.373 -0.41,0 -3.86,-2.404 -7.665,-5.346 l -6.918,-5.344 1.814,5.5 c 1.98,6.002 2.212,7.85 1.064,8.492 -1.832,1.029 -6.172,1.634 -6.611,0.923 z m 4.78,-24.832 c 3.229,-1.238 1.119,-6.393 -2.618,-6.393 -1.897,0 -2.159,1.061 -1.17,4.75 0.636,2.374 1.223,2.627 3.788,1.643 z m -130.599,15.174 c -11.403,-2.975 -17.248,-12.23 -14.754,-23.363 1.125,-5.02 4.608,-10.289 8.48,-12.826 8.742,-5.727 23.357,-2.264 27.954,6.625 2.225,4.301 1.865,5.76 -1.604,6.521 -2.728,0.598 -3.462,0.246 -6.062,-2.908 -3.027,-3.674 -7.592,-5.574 -11.56,-4.816 -5.818,1.111 -10.632,10.51 -8.285,16.176 2.235,5.396 9.131,8.84 13.611,6.797 3.207,-1.461 3.023,-2.658 -0.601,-3.922 -1.649,-0.574 -3,-1.705 -3,-2.514 0,-2.225 1.916,-5.336 3.285,-5.336 2.628,0 13.715,5.527 13.715,6.836 0,2.672 -4.447,9.277 -7.462,11.082 -4.297,2.574 -8.314,3.056 -13.717,1.648 l 0,0 z m 155.173,-3.086 c -0.527,-1.387 -3.441,-8.334 -6.476,-15.439 -3.034,-7.107 -5.518,-13.84 -5.518,-14.961 0,-2.115 3.743,-3.775 6.298,-2.795 0.717,0.273 4.409,7.799 8.205,16.723 6.62,15.559 6.825,16.279 5.009,17.607 -3.061,2.238 -6.429,1.73 -7.518,-1.135 z m 14.546,-3.73 c -0.22,-0.688 -1.131,-8.674 -2.025,-17.75 -0.895,-9.074 -1.876,-17.963 -2.182,-19.75 -0.438,-2.566 -0.211,-3.25 1.079,-3.25 2.163,0 34.589,21.707 34.589,23.154 0,1.693 -3.194,3.777 -5.842,3.814 -1.288,0.018 -3.486,-0.869 -4.885,-1.969 -3.313,-2.605 -3.945,-2.541 -9.217,0.957 -4.353,2.887 -4.438,3.049 -4.182,7.891 0.223,4.186 -0.089,5.189 -2.028,6.547 -2.746,1.926 -4.764,2.061 -5.307,0.356 l 0,0 z m 3.583,-19 c -0.456,-1.236 -1.111,-4.387 -1.456,-7 -0.517,-3.912 -0.352,-4.75 0.94,-4.75 2.181,0 10.394,6.051 10.394,7.656 0,1.139 -6.979,6.344 -8.505,6.344 -0.299,0 -0.917,-1.012 -1.373,-2.25 z m -212.372,3.636 c -4.263,-3.043 -7.75,-6.07 -7.75,-6.725 0,-1.529 19.664,-29.043 21.104,-29.527 0.597,-0.199 4.635,2.051 8.972,5 7.955,5.412 9.511,7.879 6.725,10.666 -1.872,1.873 -3.62,1.453 -8.478,-2.035 -4.368,-3.137 -4.548,-3.178 -5.913,-1.309 -1.977,2.701 -1.83,3.119 1.907,5.43 1.823,1.127 4.108,2.926 5.078,3.996 1.662,1.836 1.666,2.096 0.069,4.533 -0.932,1.422 -2.145,2.584 -2.694,2.584 -0.551,0 -3.258,-1.656 -6.017,-3.682 -4.856,-3.564 -5.06,-3.619 -6.457,-1.75 -3.549,4.752 -3.489,5.053 1.701,8.574 5.134,3.48 5.869,5.133 3.611,8.107 -1.997,2.632 -3.411,2.171 -11.858,-3.862 z m 234.579,-20.945 c -6.506,-6.908 -11.972,-13.197 -12.147,-13.975 -0.263,-1.172 2.601,-1.465 16.47,-1.691 l 16.789,-0.275 -6.72,-7.121 c -3.696,-3.918 -6.721,-7.785 -6.721,-8.596 0,-1.613 3.074,-4.783 4.639,-4.783 1.596,0 25.361,25.693 25.361,27.42 0,1.377 -2.144,1.58 -16.725,1.58 l -16.725,0 7.225,7.273 c 3.974,4 7.225,7.756 7.225,8.346 0,1.553 -3.389,4.381 -5.25,4.381 -0.876,0 -6.915,-5.651 -13.421,-12.559 z m -262.329,-1.68 c 0,-0.68 3.263,-9.451 7.25,-19.49 7.517,-18.922 8.563,-20.346 12.095,-16.443 2.315,2.559 2.152,3.619 -2.206,14.332 l -3.861,9.49 9.111,-3.795 c 5.012,-2.086 10.055,-3.809 11.206,-3.824 2.502,-0.037 5.854,3.355 5.146,5.205 -0.451,1.174 -35.406,15.764 -37.771,15.764 -0.533,0 -0.97,-0.557 -0.97,-1.239 l 0,0 z m 273.869,-88.019 -6.502,12.348 c -17.999,35.955 -50.338,61.586 -89.392,70.852 -7.642,1.812 -28.428,4.24 -33.476,3.91 -1.1,-0.072 -5.825,-0.48 -10.5,-0.91 l 0,0 C 211.268,912.247 169.06,881.825 149.2,836.719 l -3.333,-7.57 -0.842,-3.028 m 296.355,9.727 c -1.213,-0.539 -2.594,2.679 -3.923,6.892 -3.583,11.367 -19.979,41.656 -22.549,41.656 -0.501,0 -1.928,-0.824 -3.173,-1.832 l -2.263,-1.832 6.781,-11.225 c 6.331,-10.479 14.49,-27.953 16.088,-34.455 l 0.785,-4.447 m 7.702,-67.745 c -0.276,-0.963 -2.234,-10.394 -3.153,-15.069 -6.466,-32.877 -27.135,-68.762 -52.497,-91.143 -5.494,-4.85 -6.726,-5.518 -8.744,-4.75 -4.096,1.557 -11.495,1.021 -14.942,-1.08 -3.401,-2.074 -4.816,-5.426 -4.028,-9.545 0.6,-3.139 -0.122,-3.107 -3.202,0.137 -3.117,3.285 -6.034,4.381 -11.661,4.381 -8.455,0 -12.977,-4.578 -10.753,-10.891 0.782,-2.219 0.504,-2.959 -1.856,-4.947 -3.951,-3.33 -3.734,-7.402 0.624,-11.762 4.007,-4.008 3.917,-4.109 -1.046,-1.182 -5.155,3.041 -14.057,3.131 -18.027,0.182 -2.141,-1.59 -2.899,-3.072 -3.127,-6.102 -0.264,-3.508 0.138,-4.387 3.236,-7.109 5.91,-5.188 16.042,-6.484 21.201,-2.713 1.563,1.145 2.25,1.027 4.843,-0.818 4.562,-3.252 15.35,-3.1 18.937,0.266 3.746,3.516 3.572,8.934 -0.415,12.922 -4.585,4.584 -3.328,5.758 6.109,5.701 7.609,-0.045 8.186,0.107 10.471,2.76 2.567,2.979 3.262,8.449 1.319,10.393 -0.798,0.799 -0.255,1.283 1.988,1.777 3.713,0.814 7.104,4.814 7.13,8.408 0.014,1.969 1.512,3.852 6.059,7.615 20.507,16.977 41.021,48.229 50.349,76.705 3.401,10.385 8.336,34.442 8.336,39.001 m -7.112,-3.127 c -4.996,-1.508 -9.841,-1.501 -14.152,0.058 -2.841,1.027 -3.549,0.84 -7.391,-1.941 -5.6,-4.057 -14.302,-6.691 -26.829,-8.121 -7.62,-0.871 -11.282,-0.881 -14.399,-0.043 -3.492,0.941 -4.938,0.832 -8.781,-0.658 -4.337,-1.682 -15.368,-2.156 -26.864,-1.156 l -3.264,0.283 -0.354,-15.5 c -0.534,-23.363 -5.908,-46.934 -11.631,-51.008 -6.768,-4.82 -22.521,-5.004 -31.047,-0.363 l -4.845,2.637 -4.507,-2.119 c -2.479,-1.164 -6.438,-2.562 -8.798,-3.107 -9.287,-2.143 -36.683,-0.67 -43.884,2.357 -2.08,0.875 -5.401,1.174 -9.442,0.85 -8.572,-0.689 -15.887,1.236 -20.485,5.391 -3.68,3.324 -3.772,3.348 -7.321,1.865 -7.135,-2.98 -20.67,-1.02 -27.168,3.938 -3.105,2.367 -3.782,2.504 -7.894,1.582 -3.321,-0.744 -6.403,-0.641 -11.797,0.398 -14.932,2.873 -24.189,8.162 -28.875,16.498 l -2.152,3.83 -11.137,-0.121 c -10.405,-0.115 -11.53,0.07 -17.137,2.803 -7.346,3.584 -17.215,13.217 -20.56,20.07 -5.371,11.006 -2.635,22.07 9.77,39.5 16.284,22.881 34.582,38.455 51.79,44.078 6.626,2.166 17.235,1.727 22.729,-0.939 5.694,-2.766 13.188,-10.809 14.836,-15.924 1.724,-5.352 2.557,-6.047 7.239,-6.049 8.979,-0.002 19.829,-5.734 26.016,-13.744 6.152,-7.967 7.364,-7.41 7.264,3.328 l -0.083,8.75 11.802,30 c 6.491,16.5 12.867,31.623 14.169,33.605 5.21,7.938 16.659,10.084 23.986,4.496 l 0,0 0,0 c 1.947,-1.486 4.554,-4.482 5.792,-6.66 l 2.251,-3.959 5.575,0.617 c 8.121,0.902 14.583,-2.809 19.535,-11.215 0.992,-1.686 1.475,-1.752 4.57,-0.635 4.482,1.619 9.079,1.586 13.102,-0.094 1.771,-0.738 4.915,-1.66 6.989,-2.049 2.074,-0.389 5.292,-2.041 7.15,-3.672 3.259,-2.861 3.629,-2.945 10.36,-2.318 5.439,0.504 7.703,0.287 10.253,-0.984 2.181,-1.088 5.856,-1.633 11.014,-1.633 4.94,0 10.106,-0.73 14.279,-2.02 5.419,-1.674 7.324,-1.842 11.136,-0.988 4.803,1.076 7.561,0.766 13.729,-1.547 1.585,-0.594 2.599,-0.891 3.663,-0.846 m 42.238,5.612 c 8.137,3.929 17.439,3.076 23.55,-2.523 5.362,-4.914 5.308,-7.809 -0.609,-32.189 -2.804,-11.549 -5.617,-22.35 -6.254,-24 -1.872,-4.856 -4.979,-8.385 -10.016,-11.296 m -48.907,64.395 c 1.17,0.049 2.402,0.512 4.521,1.449 6.354,2.811 20.679,3.141 25.83,0.596 l 3.706,-1.83 m -188.684,25.93 c -5.22,-5.557 -16.977,-34.576 -21.184,-52.289 -3.632,-15.291 -2.872,-16.822 10.977,-22.145 12.229,-4.701 18.5,-4.953 25.224,-1.012 2.595,1.52 5.224,3.711 5.843,4.867 1.637,3.059 2.877,0.572 2.896,-5.805 0.02,-6.625 2.093,-9.293 7.814,-10.061 5.771,-0.775 7.325,0.828 16.298,16.805 3.981,7.09 7.426,12.705 7.653,12.479 0.227,-0.229 -0.749,-6.148 -2.169,-13.158 -1.42,-7.01 -2.582,-13.594 -2.582,-14.631 0,-3.416 4.476,-6.795 9,-6.795 5.624,0 8.688,3.17 9.583,9.908 0.371,2.801 0.959,5.092 1.307,5.092 0.348,0 2.787,-3.596 5.421,-7.99 2.634,-4.396 5.638,-8.445 6.674,-9 2.965,-1.588 8.581,-1.182 11.022,0.795 2.161,1.75 2.366,1.734 6.78,-0.5 7.77,-3.934 20.033,-2.951 27.642,2.211 l 3.665,2.488 2.335,-2.715 2.336,-2.715 11.602,1.158 c 20.777,2.076 28.639,7.834 28.631,20.969 -0.004,6.277 -2.251,11.295 -5.943,13.27 -2.434,1.303 -2.528,2.004 -0.619,4.588 1.353,1.832 1.558,1.656 3.603,-3.059 9.947,-22.936 13.194,-27.5 19.56,-27.5 2.719,0 8.448,2.605 9.654,4.391 1.816,2.686 7.695,22.943 9.151,31.535 2.177,12.84 2.075,16.598 -0.518,19.191 -4.301,4.299 -14.885,-0.125 -14.885,-6.225 0,-1.33 -1.153,-2.477 -3.468,-3.443 -5.33,-2.227 -8.218,-1.867 -9.728,1.211 -2.171,4.428 -6.197,6.73 -11.62,6.65 -8.184,-0.125 -10.39,-1.982 -15.772,-13.289 -2.624,-5.512 -5.141,-10.021 -5.592,-10.021 -0.451,0 -0.82,3.826 -0.82,8.5 0,7.166 -0.313,8.814 -2,10.5 -2.928,2.928 -8.995,2.699 -11.955,-0.451 l -2.304,-2.453 -3.12,2.314 c -1.717,1.273 -4.65,2.826 -6.52,3.451 -4.553,1.525 -16.029,1.385 -18.941,-0.23 -2.104,-1.166 -2.624,-1.012 -5.173,1.537 -1.876,1.875 -3.866,2.832 -5.892,2.832 -3.028,0 -5.034,-1.738 -15.567,-13.5 -2.644,-2.951 -2.678,-2.959 -2.101,-0.5 0.323,1.375 0.864,4.998 1.202,8.053 0.545,4.928 0.341,5.871 -1.821,8.385 -1.731,2.012 -3.429,2.865 -5.872,2.947 -1.89,0.062 -4.03,0.678 -4.758,1.365 -0.727,0.688 -3.06,1.25 -5.184,1.25 -3.424,0 -4.19,-0.482 -6.754,-4.25 -3.086,-4.537 -4.895,-4.979 -10.133,-2.477 -2.261,1.078 -2.678,2.023 -3.129,7.09 -0.427,4.801 -1.018,6.273 -3.306,8.24 -3.352,2.883 -6.639,3.055 -9.78,0.512 -2.142,-1.734 -2.385,-2.92 -3.024,-14.75 -0.382,-7.076 -0.734,-13.236 -0.782,-13.691 -0.048,-0.455 -1.22,0.52 -2.604,2.166 -1.385,1.645 -4.534,4.174 -7,5.617 -2.465,1.445 -4.482,3.256 -4.482,4.021 0,0.768 1.096,5.918 2.434,11.445 2.47,10.199 2.354,14.219 -0.514,17.674 -1.88,2.265 -8.24,1.757 -10.691,-0.852 l 0,0 z m 36.484,-42.364 c -0.871,-0.871 -0.941,-6.625 -0.106,-8.799 1.7,-4.432 7.829,0.754 7.216,6.104 -0.266,2.316 -0.861,2.867 -3.359,3.111 -1.67,0.164 -3.357,-0.023 -3.751,-0.416 l 0,0 z m -38.57,-4.707 c -1.309,-1.578 -4.144,-8.174 -4.144,-9.641 0,-2.406 4.095,-5.033 7.845,-5.033 4.764,0 7.312,2.535 7.45,7.412 0.179,6.301 -7.693,11.428 -11.151,7.262 z m 114.623,0.256 c -2.388,-1.393 -4.538,-9.676 -5.336,-20.561 -0.62,-8.451 -0.512,-9.287 1.45,-11.25 2.115,-2.113 7.465,-2.859 9.72,-1.354 2.133,1.424 3.194,4.83 4.389,14.088 1.417,10.973 0.72,17.697 -1.984,19.145 -2.371,1.268 -5.997,1.239 -8.239,-0.068 l 0,0 0,0 z m -20.767,-1.859 c -0.824,-1.02 -3.412,-4.193 -5.75,-7.053 -2.337,-2.857 -4.25,-6.199 -4.25,-7.426 0,-3.447 7.438,-15.092 9.64,-15.092 1.626,0 2.072,1.576 3.535,12.5 2.254,16.83 2.263,19.01 0.075,18.963 -0.962,-0.021 -2.425,-0.873 -3.25,-1.892 l 0,0 z m 95.715,-1.69 c -2.488,-2.488 1.127,-9.689 4.612,-9.188 2.677,0.385 4.575,5.146 3.034,7.609 -1.096,1.753 -6.382,2.843 -7.646,1.579 z m -39.68,-19.314 c -0.569,-1.064 -1.035,-3.119 -1.035,-4.566 0,-6.049 4.43,-8.188 11.436,-5.525 2.158,0.822 2.564,1.605 2.564,4.943 0,4.812 -2.624,7.082 -8.187,7.082 -2.676,0 -4.037,-0.551 -4.778,-1.934 l 0,0 z m -262.272,26.42 c -8.666,-3.184 -21.382,-14.613 -36.938,-33.205 -11.49,-13.73 -13.324,-17.289 -13.324,-25.85 0,-8.277 2.077,-12.172 9.5,-17.812 7.757,-5.893 12.937,-8.088 19,-8.051 16.309,0.1 28.218,18.682 15.404,24.035 -3.331,1.393 -3.876,1.354 -7.528,-0.551 -4.719,-2.459 -6.704,-2.562 -9.653,-0.496 -3.963,2.775 -2.88,6.166 4.854,15.193 7.103,8.291 8.877,9.9 6.958,6.316 -0.569,-1.064 -1.035,-3.373 -1.035,-5.133 0,-6.191 9.678,-12.557 17.899,-11.771 l 3.77,0.359 -3.525,-5.51 c -7.773,-12.152 -9.152,-21.768 -4.37,-30.477 6.248,-11.379 26.864,-17.291 38.578,-11.062 l 4.648,2.471 0,-2.416 c 0,-1.328 1.064,-3.652 2.365,-5.166 2.028,-2.357 3.287,-2.809 8.822,-3.16 9.092,-0.58 10.239,0.697 17.356,19.299 12.439,32.512 11.726,30.973 14.509,31.297 1.577,0.184 3.246,-0.469 4.37,-1.711 1.77,-1.955 1.64,-2.6 -4.802,-23.91 -3.642,-12.045 -6.621,-23.242 -6.621,-24.883 0,-3.977 2.912,-6.416 8.4,-7.035 5.516,-0.621 8.509,0.076 11.241,2.623 2.096,1.953 2.107,1.949 4.242,-0.938 3.285,-4.443 10.843,-6.203 27.1,-6.309 14.872,-0.098 17.906,0.695 24.356,6.359 3.102,2.723 4.061,4.359 6.154,10.506 0.549,1.611 1.468,0.447 4.724,-5.984 2.225,-4.393 4.772,-8.541 5.663,-9.219 1.994,-1.52 13.523,-1.686 16.233,-0.236 1.09,0.584 2.442,2.271 3.006,3.75 2.297,6.033 5.945,22.498 7.832,35.352 2.328,15.857 1.863,18.748 -3.423,21.258 -6.755,3.205 -12.347,1.346 -14.992,-4.986 -1.331,-3.186 -1.757,-3.434 -5.909,-3.434 -3.819,0 -4.816,0.449 -6.802,3.062 -6.404,8.43 -8.305,10.059 -12.326,10.562 -2.942,0.367 -5.189,-0.111 -8.5,-1.812 -4.419,-2.271 -6.731,-5.1 -13.258,-16.221 -1.517,-2.586 -3.094,-4.492 -3.504,-4.238 -0.41,0.252 -0.336,4.918 0.163,10.367 1.12,12.203 0.618,14.416 -3.812,16.801 -5.285,2.848 -10.465,1.256 -13.03,-4 l -1.942,-3.98 -0.816,3.152 c -1.096,4.229 -8.671,10.74 -15.44,13.273 -9.179,3.434 -16.068,2.49 -23.359,-3.201 l -2.5,-1.951 -0.671,4.621 c -1.487,10.242 -9.467,18.309 -20.341,20.566 -6.382,1.326 -9.62,0.627 -15.408,-3.318 -2.934,-2 -4.215,-2.479 -3.809,-1.42 1.582,4.125 1.833,9.131 0.695,13.875 -2.962,12.347 -17.218,19.118 -30.204,14.349 l 0,0 z m 38.559,-45.973 c -3.314,-2.322 -19.501,-29.432 -20.061,-33.598 -0.387,-2.885 -0.015,-4.068 1.814,-5.771 3.144,-2.93 9.001,-2.879 12.3,0.105 3.678,3.328 17.624,29.977 17.624,33.676 0.001,5.924 -6.651,9.108 -11.677,5.588 l 0,0 z m 133.878,-37.713 c -3.479,-3.479 0.42,-13.801 5.212,-13.801 4.412,0 6.659,11.822 2.654,13.965 -2.595,1.389 -6.391,1.311 -7.866,-0.164 l 0,0 z m -48.038,-14.105 c -0.692,-0.834 -1.513,-3.082 -1.823,-4.994 -0.805,-4.961 2.122,-7.701 8.228,-7.701 6.335,0 8.434,1.334 8.434,5.361 0,4.461 -3.604,7.727 -9.227,8.361 -3.135,0.354 -4.705,0.067 -5.612,-1.027 z m -114.197,74.371 c 1.334,-2.492 -0.085,-6.336 -3.124,-8.465 -1.419,-0.994 -4.358,-1.602 -7.749,-1.602 -4.229,0 -8.377,-3.682 -10.363,-5.416 -2.688,-2.348 3.655,5.604 10.718,13.166 4.452,4.766 8.705,5.704 10.518,2.317 l 0,0 z m 143.724,-62.053 c 1.049,-2.777 0.995,-2.914 -0.78,-1.965 -1.05,0.562 -1.908,1.906 -1.908,2.986 -10e-4,2.915 1.403,2.382 2.688,-1.021 z"
   id="path5"
   style="fill:none;stroke:#000000" />
</svg>